<svg xmlns="http://www.w3.org/2000/svg" width="512" height="512" viewBox="-2 -2 36 36" fill="none" role="img" aria-labelledby="title desc">
    <title id="title">Aura · 虹彩书</title>
    <desc id="desc">正视展开的双页书本，柔和彩虹沿纸页流动，浅色纸边与书封体现轻盈层次。</desc>
    <defs>
        <linearGradient id="pages" x1="1" y1="12" x2="31" y2="17" gradientUnits="userSpaceOnUse">
            <stop stop-color="#E99CAE" />
            <stop offset="0.18" stop-color="#EFB18E" />
            <stop offset="0.35" stop-color="#E5C985" />
            <stop offset="0.51" stop-color="#92CAA5" />
            <stop offset="0.67" stop-color="#68C2C9" />
            <stop offset="0.83" stop-color="#86A3D8" />
            <stop offset="1" stop-color="#B19AD6" />
        </linearGradient>
        <linearGradient id="cover" x1="1" y1="16" x2="31" y2="16" gradientUnits="userSpaceOnUse">
            <stop stop-color="#CA7997" />
            <stop offset="0.3" stop-color="#C59961" />
            <stop offset="0.53" stop-color="#5BA891" />
            <stop offset="0.74" stop-color="#528DB5" />
            <stop offset="1" stop-color="#8A72B6" />
        </linearGradient>
    </defs>
    <path d="M16 6C12 3.3 6 3.3 2 6C1.4 6.4 1 7.1 1 8V25.4C1 26.4 1.6 27 2.6 26.8C7.2 25.8 12.1 26 16 27C19.9 26 24.8 25.8 29.4 26.8C30.4 27 31 26.4 31 25.4V8C31 7.1 30.6 6.4 30 6C26 3.3 20 3.3 16 6Z" fill="url(#cover)" />
    <path d="M3 8.5C6.5 6.8 11 6.8 14.8 8.5V25.3C10.8 24.2 6.7 24.2 3 25V8.5Z" fill="#FFFDF6" />
    <path d="M17.2 8.5C21 6.8 25.5 6.8 29 8.5V25C25.3 24.2 21.2 24.2 17.2 25.3V8.5Z" fill="#FFFDF6" />
    <path d="M3 7.5C6.5 5.8 11 5.8 14.8 7.5V24.3C10.8 23.2 6.7 23.2 3 24V7.5Z" fill="url(#pages)" />
    <path d="M17.2 7.5C21 5.8 25.5 5.8 29 7.5V24C25.3 23.2 21.2 23.2 17.2 24.3V7.5Z" fill="url(#pages)" />
</svg>
